<mxfile host="Electron" modified="2024-03-19T04:08:31.869Z" agent="Mozilla/5.0 (Windows NT 10.0; Win64; x64) AppleWebKit/537.36 (KHTML, like Gecko) draw.io/21.2.1 Chrome/112.0.5615.87 Electron/24.1.2 Safari/537.36" etag="ZOi6uqRVMQKAPM9jYkOf" version="21.2.1" type="device" pages="2">
  <diagram name="第 1 页" id="p564dUlnIFcZEKCv4rtF">
    <mxGraphModel dx="1416" dy="818" grid="1" gridSize="10" guides="1" tooltips="1" connect="1" arrows="1" fold="1" page="1" pageScale="1" pageWidth="827" pageHeight="1169" math="0" shadow="0">
      <root>
        <mxCell id="0" />
        <mxCell id="1" parent="0" />
        <mxCell id="mIlQRqVLtQWX9liI4tA5-1" value="" style="fillColor=#DEE8FF;strokeColor=none" parent="1" vertex="1">
          <mxGeometry x="40" y="10" width="1570" height="680" as="geometry" />
        </mxCell>
        <mxCell id="mIlQRqVLtQWX9liI4tA5-4" value="" style="edgeStyle=orthogonalEdgeStyle;rounded=0;orthogonalLoop=1;jettySize=auto;html=1;" parent="1" source="mIlQRqVLtQWX9liI4tA5-2" target="mIlQRqVLtQWX9liI4tA5-3" edge="1">
          <mxGeometry relative="1" as="geometry" />
        </mxCell>
        <mxCell id="mIlQRqVLtQWX9liI4tA5-2" value="&lt;font style=&quot;&quot;&gt;&lt;font style=&quot;font-size: 25px;&quot;&gt;SendQuery&lt;/font&gt;&lt;br&gt;&lt;/font&gt;" style="ellipse;whiteSpace=wrap;html=1;fillColor=#f8cecc;strokeColor=#b85450;" parent="1" vertex="1">
          <mxGeometry x="145" y="90" width="140" height="90" as="geometry" />
        </mxCell>
        <mxCell id="mIlQRqVLtQWX9liI4tA5-6" value="" style="edgeStyle=orthogonalEdgeStyle;rounded=0;orthogonalLoop=1;jettySize=auto;html=1;" parent="1" source="mIlQRqVLtQWX9liI4tA5-3" target="mIlQRqVLtQWX9liI4tA5-5" edge="1">
          <mxGeometry relative="1" as="geometry" />
        </mxCell>
        <mxCell id="mIlQRqVLtQWX9liI4tA5-3" value="&lt;font style=&quot;font-size: 25px;&quot;&gt;PQexec&lt;/font&gt;" style="ellipse;whiteSpace=wrap;html=1;fillColor=#f8cecc;strokeColor=#b85450;" parent="1" vertex="1">
          <mxGeometry x="153.13" y="220" width="123.75" height="90" as="geometry" />
        </mxCell>
        <mxCell id="mIlQRqVLtQWX9liI4tA5-5" value="&lt;span style=&quot;font-size: 25px;&quot;&gt;PQsendQuery&lt;/span&gt;" style="ellipse;whiteSpace=wrap;html=1;fillColor=#f8cecc;strokeColor=#b85450;" parent="1" vertex="1">
          <mxGeometry x="127.51" y="350" width="174.99" height="110" as="geometry" />
        </mxCell>
      </root>
    </mxGraphModel>
  </diagram>
  <diagram id="7BBxSSiBva5tTI8dfLGc" name="第 2 页">
    <mxGraphModel dx="1416" dy="818" grid="1" gridSize="10" guides="1" tooltips="1" connect="1" arrows="1" fold="1" page="1" pageScale="1" pageWidth="827" pageHeight="1169" math="0" shadow="0">
      <root>
        <mxCell id="0" />
        <mxCell id="1" parent="0" />
        <mxCell id="8V2Py7C7mJZcZOw80fmm-1" value="" style="fillColor=#DEE8FF;strokeColor=none" parent="1" vertex="1">
          <mxGeometry x="130" y="10" width="1580" height="800" as="geometry" />
        </mxCell>
        <mxCell id="gOPHhJKQWE_v_Ab_GULS-9" value="" style="edgeStyle=orthogonalEdgeStyle;rounded=0;orthogonalLoop=1;jettySize=auto;html=1;" parent="1" source="gOPHhJKQWE_v_Ab_GULS-1" target="gOPHhJKQWE_v_Ab_GULS-2" edge="1">
          <mxGeometry relative="1" as="geometry">
            <Array as="points">
              <mxPoint x="290" y="220" />
              <mxPoint x="290" y="220" />
            </Array>
          </mxGeometry>
        </mxCell>
        <mxCell id="qBw4-xCdAFnM6X5Yxgzk-18" value="" style="edgeStyle=orthogonalEdgeStyle;rounded=0;orthogonalLoop=1;jettySize=auto;html=1;" parent="1" source="gOPHhJKQWE_v_Ab_GULS-1" target="qBw4-xCdAFnM6X5Yxgzk-17" edge="1">
          <mxGeometry relative="1" as="geometry" />
        </mxCell>
        <mxCell id="gOPHhJKQWE_v_Ab_GULS-1" value="&lt;font style=&quot;&quot;&gt;&lt;font style=&quot;font-size: 25px;&quot;&gt;PQconnectdbParams&lt;/font&gt;&lt;br&gt;&lt;/font&gt;" style="ellipse;whiteSpace=wrap;html=1;fillColor=#f8cecc;strokeColor=#b85450;" parent="1" vertex="1">
          <mxGeometry x="160.93" y="100" width="255" height="100" as="geometry" />
        </mxCell>
        <mxCell id="gOPHhJKQWE_v_Ab_GULS-8" value="" style="edgeStyle=orthogonalEdgeStyle;rounded=0;orthogonalLoop=1;jettySize=auto;html=1;" parent="1" source="gOPHhJKQWE_v_Ab_GULS-2" target="gOPHhJKQWE_v_Ab_GULS-3" edge="1">
          <mxGeometry relative="1" as="geometry">
            <Array as="points">
              <mxPoint x="290" y="360" />
              <mxPoint x="290" y="360" />
            </Array>
          </mxGeometry>
        </mxCell>
        <mxCell id="gOPHhJKQWE_v_Ab_GULS-2" value="PQconnectStartParams" style="ellipse;whiteSpace=wrap;html=1;fillColor=#f8cecc;strokeColor=#b85450;fontSize=25;" parent="1" vertex="1">
          <mxGeometry x="150" y="240" width="270" height="100" as="geometry" />
        </mxCell>
        <mxCell id="gOPHhJKQWE_v_Ab_GULS-5" value="" style="edgeStyle=orthogonalEdgeStyle;rounded=0;orthogonalLoop=1;jettySize=auto;html=1;" parent="1" source="gOPHhJKQWE_v_Ab_GULS-3" target="gOPHhJKQWE_v_Ab_GULS-4" edge="1">
          <mxGeometry relative="1" as="geometry">
            <Array as="points">
              <mxPoint x="290" y="510" />
              <mxPoint x="290" y="510" />
            </Array>
          </mxGeometry>
        </mxCell>
        <mxCell id="gOPHhJKQWE_v_Ab_GULS-3" value="&lt;span style=&quot;font-size: 25px;&quot;&gt;connectDBStart&lt;/span&gt;" style="ellipse;whiteSpace=wrap;html=1;fillColor=#f8cecc;strokeColor=#b85450;" parent="1" vertex="1">
          <mxGeometry x="192.19" y="380" width="192.49" height="110" as="geometry" />
        </mxCell>
        <mxCell id="gOPHhJKQWE_v_Ab_GULS-11" value="" style="edgeStyle=orthogonalEdgeStyle;rounded=0;orthogonalLoop=1;jettySize=auto;html=1;dashed=1;" parent="1" source="gOPHhJKQWE_v_Ab_GULS-4" target="gOPHhJKQWE_v_Ab_GULS-10" edge="1">
          <mxGeometry relative="1" as="geometry">
            <Array as="points">
              <mxPoint x="290" y="660" />
              <mxPoint x="290" y="660" />
            </Array>
          </mxGeometry>
        </mxCell>
        <mxCell id="gOPHhJKQWE_v_Ab_GULS-4" value="&lt;span style=&quot;font-size: 25px;&quot;&gt;&lt;b&gt;PQconnectPoll&lt;/b&gt;&lt;/span&gt;" style="ellipse;whiteSpace=wrap;html=1;fillColor=#f8cecc;strokeColor=#b85450;" parent="1" vertex="1">
          <mxGeometry x="190" y="540" width="190" height="100" as="geometry" />
        </mxCell>
        <mxCell id="HjNNaPY6XoNjXT3RR0bV-4" value="" style="edgeStyle=orthogonalEdgeStyle;rounded=0;orthogonalLoop=1;jettySize=auto;html=1;dashed=1;" parent="1" source="gOPHhJKQWE_v_Ab_GULS-10" target="HjNNaPY6XoNjXT3RR0bV-3" edge="1">
          <mxGeometry relative="1" as="geometry" />
        </mxCell>
        <mxCell id="gOPHhJKQWE_v_Ab_GULS-10" value="&lt;font style=&quot;font-size: 25px;&quot;&gt;socket&lt;/font&gt;" style="ellipse;whiteSpace=wrap;html=1;fillColor=#f8cecc;strokeColor=#b85450;" parent="1" vertex="1">
          <mxGeometry x="217.19" y="690" width="142.49" height="80" as="geometry" />
        </mxCell>
        <mxCell id="HjNNaPY6XoNjXT3RR0bV-1" value="socket 通信流程" style="rounded=1;fontStyle=1;fillColor=#FFD966;strokeColor=none;fontSize=30;" parent="1" vertex="1">
          <mxGeometry x="160.93" y="30" width="240" height="40" as="geometry" />
        </mxCell>
        <mxCell id="HjNNaPY6XoNjXT3RR0bV-3" value="&lt;font style=&quot;font-size: 25px;&quot;&gt;connect&lt;/font&gt;" style="ellipse;whiteSpace=wrap;html=1;fillColor=#f8cecc;strokeColor=#b85450;" parent="1" vertex="1">
          <mxGeometry x="415.93" y="690" width="142.49" height="80" as="geometry" />
        </mxCell>
        <mxCell id="qBw4-xCdAFnM6X5Yxgzk-3" value="" style="endArrow=classic;html=1;rounded=0;exitX=0.274;exitY=0;exitDx=0;exitDy=0;exitPerimeter=0;dashed=1;" parent="1" source="HjNNaPY6XoNjXT3RR0bV-3" edge="1">
          <mxGeometry width="50" height="50" relative="1" as="geometry">
            <mxPoint x="500" y="690" as="sourcePoint" />
            <mxPoint x="360" y="620" as="targetPoint" />
          </mxGeometry>
        </mxCell>
        <mxCell id="qBw4-xCdAFnM6X5Yxgzk-4" value="PGRES_POLLING_WRITING" style="text;html=1;strokeColor=none;fillColor=none;align=center;verticalAlign=middle;whiteSpace=wrap;rounded=0;" parent="1" vertex="1">
          <mxGeometry x="398.93" y="632" width="60" height="30" as="geometry" />
        </mxCell>
        <mxCell id="qBw4-xCdAFnM6X5Yxgzk-10" value="&lt;h1&gt;conn-&amp;gt;status&lt;/h1&gt;" style="text;html=1;strokeColor=#82b366;fillColor=#d5e8d4;spacing=5;spacingTop=-20;whiteSpace=wrap;overflow=hidden;rounded=0;" parent="1" vertex="1">
          <mxGeometry x="640" y="210" width="165.01" height="43" as="geometry" />
        </mxCell>
        <mxCell id="qBw4-xCdAFnM6X5Yxgzk-24" style="edgeStyle=orthogonalEdgeStyle;rounded=0;orthogonalLoop=1;jettySize=auto;html=1;" parent="1" edge="1">
          <mxGeometry relative="1" as="geometry">
            <mxPoint x="624.94" y="199.9981714766123" as="sourcePoint" />
            <mxPoint x="380" y="591" as="targetPoint" />
            <Array as="points">
              <mxPoint x="620" y="200" />
              <mxPoint x="620" y="591" />
            </Array>
          </mxGeometry>
        </mxCell>
        <mxCell id="qBw4-xCdAFnM6X5Yxgzk-17" value="&lt;font style=&quot;&quot;&gt;&lt;font style=&quot;font-size: 25px;&quot;&gt;connectDBComplete&lt;/font&gt;&lt;br&gt;&lt;/font&gt;" style="ellipse;whiteSpace=wrap;html=1;fillColor=#f8cecc;strokeColor=#b85450;" parent="1" vertex="1">
          <mxGeometry x="495.93" y="100" width="244.07" height="100" as="geometry" />
        </mxCell>
        <mxCell id="qBw4-xCdAFnM6X5Yxgzk-27" value="PGRES_POLLING_WRITING" style="text;html=1;strokeColor=none;fillColor=none;align=center;verticalAlign=middle;whiteSpace=wrap;rounded=0;" parent="1" vertex="1">
          <mxGeometry x="910" y="135" width="60" height="30" as="geometry" />
        </mxCell>
        <mxCell id="qBw4-xCdAFnM6X5Yxgzk-28" value="PGRES_POLLING_READING" style="text;html=1;strokeColor=none;fillColor=none;align=center;verticalAlign=middle;whiteSpace=wrap;rounded=0;" parent="1" vertex="1">
          <mxGeometry x="910" y="180" width="60" height="30" as="geometry" />
        </mxCell>
        <mxCell id="qBw4-xCdAFnM6X5Yxgzk-32" value="&lt;pre style=&quot;border-color: var(--border-color); text-align: left;&quot;&gt;&lt;font face=&quot;Helvetica&quot; style=&quot;font-size: 17px;&quot;&gt;CONNECTION_STARTED&lt;/font&gt;&lt;/pre&gt;" style="text;html=1;strokeColor=none;fillColor=none;align=center;verticalAlign=middle;whiteSpace=wrap;rounded=0;" parent="1" vertex="1">
          <mxGeometry x="692.51" y="268" width="60" height="30" as="geometry" />
        </mxCell>
        <mxCell id="qBw4-xCdAFnM6X5Yxgzk-33" value="&lt;div style=&quot;border-color: var(--border-color); text-align: left;&quot;&gt;&lt;font style=&quot;font-size: 17px;&quot;&gt;&amp;nbsp; &amp;nbsp; CONNECTION_MADE&lt;/font&gt;&lt;/div&gt;" style="text;html=1;strokeColor=none;fillColor=none;align=center;verticalAlign=middle;whiteSpace=wrap;rounded=0;fontFamily=Helvetica;" parent="1" vertex="1">
          <mxGeometry x="692.5" y="298" width="60" height="30" as="geometry" />
        </mxCell>
        <mxCell id="qBw4-xCdAFnM6X5Yxgzk-35" value="PGRES_POLLING_WRITING" style="text;html=1;strokeColor=none;fillColor=none;align=center;verticalAlign=middle;whiteSpace=wrap;rounded=0;" parent="1" vertex="1">
          <mxGeometry x="910" y="223" width="60" height="30" as="geometry" />
        </mxCell>
        <mxCell id="qBw4-xCdAFnM6X5Yxgzk-36" value="PGRES_POLLING_READING" style="text;html=1;strokeColor=none;fillColor=none;align=center;verticalAlign=middle;whiteSpace=wrap;rounded=0;" parent="1" vertex="1">
          <mxGeometry x="910" y="270" width="60" height="30" as="geometry" />
        </mxCell>
        <mxCell id="qBw4-xCdAFnM6X5Yxgzk-38" value="&lt;h1 style=&quot;border-color: var(--border-color); text-align: left;&quot;&gt;&lt;font style=&quot;border-color: var(--border-color); font-size: 17px; font-weight: normal;&quot;&gt;CONNECTION_NEEDED&lt;/font&gt;&lt;/h1&gt;" style="text;html=1;strokeColor=none;fillColor=none;align=center;verticalAlign=middle;whiteSpace=wrap;rounded=0;" parent="1" vertex="1">
          <mxGeometry x="250.93" y="650" width="60" height="30" as="geometry" />
        </mxCell>
        <mxCell id="qBw4-xCdAFnM6X5Yxgzk-39" value="&lt;div style=&quot;border-color: var(--border-color); text-align: left;&quot;&gt;&lt;font style=&quot;font-size: 17px;&quot;&gt;&amp;nbsp; &amp;nbsp; CONNECTION_SSL_STARTUP&lt;/font&gt;&lt;/div&gt;" style="text;html=1;strokeColor=none;fillColor=none;align=center;verticalAlign=middle;whiteSpace=wrap;rounded=0;fontFamily=Helvetica;" parent="1" vertex="1">
          <mxGeometry x="692.5" y="340" width="60" height="30" as="geometry" />
        </mxCell>
        <mxCell id="qBw4-xCdAFnM6X5Yxgzk-40" value="&lt;div style=&quot;border-color: var(--border-color); text-align: left;&quot;&gt;&lt;font style=&quot;font-size: 17px;&quot;&gt;&amp;nbsp; &amp;nbsp; CONNECTION_MADE&lt;/font&gt;&lt;/div&gt;" style="text;html=1;strokeColor=none;fillColor=none;align=center;verticalAlign=middle;whiteSpace=wrap;rounded=0;fontFamily=Helvetica;" parent="1" vertex="1">
          <mxGeometry x="692.51" y="395" width="60" height="30" as="geometry" />
        </mxCell>
        <mxCell id="qBw4-xCdAFnM6X5Yxgzk-41" value="&lt;div style=&quot;border-color: var(--border-color); text-align: left;&quot;&gt;&lt;font style=&quot;font-size: 17px;&quot;&gt;&amp;nbsp; &amp;nbsp; CONNECTION_AWAITING_RESPONSE&lt;/font&gt;&lt;/div&gt;" style="text;html=1;strokeColor=none;fillColor=none;align=center;verticalAlign=middle;whiteSpace=wrap;rounded=0;fontFamily=Helvetica;" parent="1" vertex="1">
          <mxGeometry x="692.51" y="450" width="60" height="30" as="geometry" />
        </mxCell>
      </root>
    </mxGraphModel>
  </diagram>
</mxfile>
